<svg xmlns="http://www.w3.org/2000/svg" viewBox="0 0 512 512">
  <path d="M116 335h194v19H116zm0-75h194v19H116zm0-75h194v19H116zm103-75h92v19h-92z"/>
  <path d="M385 396V33c-4-19-20-33-40-33H185c-12 0-23 5-31 13L54 113c-9 8-13 19-13 31v252c0 22 18 40 40 40h264c22 0 40-18 40-40zM171 28v89c0 9-4 13-14 13H68L171 28zM63 396V150h106c4 0 7-1 10-3 4-2 7-5 9-9 2-3 2-6 2-9V22h155a17 17 0 0 1 18 18v356c0 10-8 18-18 18H81c-10 0-18-8-18-18z"/>
  <path d="M431 76h-26l1 22h25c10 0 18 8 18 18v356c0 10-8 18-18 18H167a17 17 0 0 1-18-18v-15h-22v15l1 7c3 19 19 33 39 33h264c22 0 40-18 40-40V116c0-22-18-40-40-40z"/>
</svg>
