<svg xmlns="http://www.w3.org/2000/svg" viewBox="0 0 512 512">
  <path fill="#4b4b4b" d="M443 100a124 124 0 0 0-209-64l-94 94a124 124 0 0 0 0 176 123 123 0 0 0 111 34c23-5 46-16 64-34l7-7c1-7 0-13-2-19-2-5-5-9-9-13a37 37 0 0 0-31-11l-7 7c-7 7-14 11-22 14a64 64 0 0 1-69-104l94-94a63 63 0 0 1 58-18 64 64 0 0 1 50 75c-2 12-8 23-17 33a153 153 0 0 1 43 42 123 123 0 0 0 33-111z"/>
  <path fill="#4b4b4b" d="M372 206a123 123 0 0 0-175 0l-7 7a38 38 0 0 0 11 32 37 37 0 0 0 31 11l7-7a63 63 0 0 1 58-18 64 64 0 0 1 33 108l-94 94a63 63 0 0 1-58 18 64 64 0 0 1-33-108 150 150 0 0 1-42-42 123 123 0 0 0 0 175 124 124 0 0 0 175 0l94-94a123 123 0 0 0 0-176z"/>
</svg>
